<svg width="40" height="40" viewBox="0 0 40 40" fill="none" xmlns="http://www.w3.org/2000/svg">
<path fill-rule="evenodd" clip-rule="evenodd" d="M31.107 10.0937C29.0356 9.11562 26.8208 8.40477 24.5052 8C24.2208 8.5189 23.8886 9.21683 23.6595 9.77203C21.198 9.39843 18.7591 9.39843 16.3429 9.77203C16.1139 9.21683 15.7741 8.5189 15.4871 8C13.1691 8.40477 10.9517 9.11824 8.88026 10.0989C4.70219 16.4709 3.56959 22.6845 4.13589 28.81C6.907 30.8985 9.59255 32.1672 12.2328 32.9974C12.8847 32.092 13.466 31.1294 13.9669 30.115C13.013 29.7492 12.0994 29.2978 11.2361 28.7737C11.4651 28.6024 11.6891 28.4234 11.9056 28.2392C17.1709 30.7247 22.8919 30.7247 28.0943 28.2392C28.3133 28.4234 28.5373 28.6024 28.7638 28.7737C27.898 29.3003 26.9818 29.7518 26.0279 30.1176C26.5288 31.1294 27.1077 32.0946 27.7621 33C30.4048 32.1698 33.0929 30.9011 35.864 28.81C36.5285 21.709 34.7289 15.5524 31.107 10.0937ZM14.6842 25.0429C13.1036 25.0429 11.8074 23.5537 11.8074 21.7402C11.8074 19.9266 13.0759 18.4349 14.6842 18.4349C16.2926 18.4349 17.5887 19.924 17.5611 21.7402C17.5636 23.5537 16.2926 25.0429 14.6842 25.0429ZM22.4388 21.7402C22.4388 23.5537 23.7351 25.0429 25.3157 25.0429C26.9239 25.0429 28.1925 23.5537 28.1925 21.7402C28.2202 19.924 26.9239 18.4349 25.3157 18.4349C23.7073 18.4349 22.4388 19.9266 22.4388 21.7402Z" fill="white"/>
</svg>
